<svg xmlns="http://www.w3.org/2000/svg" xmlns:xlink="http://www.w3.org/1999/xlink" width="500" zoomAndPan="magnify" viewBox="0 0 375 374.999991" height="500" preserveAspectRatio="xMidYMid meet" version="1.0"><defs><clipPath id="id1"><path d="M 122 41.933594 L 252 41.933594 L 252 332.933594 L 122 332.933594 Z M 122 41.933594 " clip-rule="nonzero"/></clipPath></defs><path fill="#6db5e7" d="M 118.308594 279.191406 C 116.238281 279.191406 114.195312 278.496094 112.566406 277.199219 L 7.691406 194.722656 C 5.433594 192.953125 4.144531 190.292969 4.144531 187.433594 C 4.144531 184.570312 5.433594 181.914062 7.683594 180.125 L 112.566406 97.664062 C 114.195312 96.367188 116.238281 95.671875 118.308594 95.671875 C 121.171875 95.671875 123.847656 96.953125 125.601562 99.214844 C 127.136719 101.160156 127.835938 103.59375 127.535156 106.046875 C 127.25 108.515625 126 110.710938 124.054688 112.246094 L 28.472656 187.433594 L 124.054688 262.601562 C 126 264.152344 127.25 266.351562 127.535156 268.800781 C 127.835938 271.269531 127.136719 273.6875 125.601562 275.648438 C 123.847656 277.894531 121.171875 279.191406 118.308594 279.191406 " fill-opacity="1" fill-rule="nonzero"/><path fill="#224c8d" d="M 118.308594 91.71875 C 115.351562 91.71875 112.457031 92.714844 110.128906 94.550781 L 5.242188 177.023438 C 2.023438 179.570312 0.1875 183.351562 0.1875 187.433594 C 0.1875 191.511719 2.035156 195.308594 5.242188 197.839844 L 110.128906 280.316406 C 112.4375 282.132812 115.351562 283.144531 118.308594 283.144531 C 122.40625 283.144531 126.203125 281.296875 128.71875 278.085938 C 130.917969 275.316406 131.886719 271.851562 131.472656 268.34375 C 131.046875 264.832031 129.289062 261.683594 126.503906 259.5 L 34.863281 187.433594 L 126.503906 115.363281 C 129.289062 113.164062 131.046875 110.03125 131.472656 106.519531 C 131.886719 103.011719 130.917969 99.546875 128.71875 96.761719 C 126.203125 93.550781 122.390625 91.71875 118.308594 91.71875 Z M 118.308594 99.625 C 119.890625 99.625 121.457031 100.320312 122.503906 101.648438 C 124.335938 103.976562 123.925781 107.328125 121.617188 109.144531 L 22.0625 187.433594 L 121.617188 265.71875 C 123.925781 267.535156 124.335938 270.890625 122.503906 273.199219 C 121.457031 274.542969 119.890625 275.238281 118.308594 275.238281 C 117.15625 275.238281 116 274.875 115.019531 274.097656 L 10.132812 191.621094 C 8.851562 190.609375 8.101562 189.0625 8.101562 187.433594 C 8.101562 185.785156 8.851562 184.253906 10.132812 183.242188 L 115.019531 100.765625 C 115.984375 99.988281 117.15625 99.625 118.308594 99.625 " fill-opacity="1" fill-rule="nonzero"/><path fill="#6db5e7" d="M 256.691406 279.191406 C 253.828125 279.191406 251.167969 277.894531 249.378906 275.648438 C 246.214844 271.632812 246.914062 265.78125 250.945312 262.601562 L 346.546875 187.433594 L 250.945312 112.246094 C 246.914062 109.082031 246.214844 103.230469 249.378906 99.214844 C 251.167969 96.953125 253.828125 95.671875 256.691406 95.671875 C 258.761719 95.671875 260.804688 96.367188 262.433594 97.664062 L 367.320312 180.125 C 369.566406 181.914062 370.847656 184.570312 370.847656 187.433594 C 370.847656 190.292969 369.566406 192.953125 367.304688 194.722656 L 262.433594 277.199219 C 260.804688 278.496094 258.761719 279.191406 256.691406 279.191406 " fill-opacity="1" fill-rule="nonzero"/><path fill="#224c8d" d="M 256.691406 91.71875 C 252.609375 91.71875 248.8125 93.550781 246.28125 96.761719 C 241.753906 102.503906 242.75 110.839844 248.496094 115.363281 L 340.136719 187.433594 L 248.496094 259.5 C 242.75 264.007812 241.753906 272.359375 246.28125 278.085938 C 248.8125 281.296875 252.609375 283.144531 256.691406 283.144531 C 259.648438 283.144531 262.542969 282.132812 264.871094 280.316406 L 369.757812 197.839844 C 372.96875 195.308594 374.804688 191.511719 374.804688 187.433594 C 374.804688 183.351562 372.96875 179.570312 369.773438 177.027344 L 264.886719 94.550781 C 262.5625 92.714844 259.648438 91.71875 256.691406 91.71875 Z M 256.691406 99.625 C 257.84375 99.625 259.015625 99.988281 259.980469 100.765625 L 364.867188 183.242188 C 366.148438 184.253906 366.890625 185.785156 366.890625 187.433594 C 366.890625 189.0625 366.148438 190.609375 364.867188 191.621094 L 259.980469 274.097656 C 259.015625 274.875 257.84375 275.238281 256.691406 275.238281 C 255.109375 275.238281 253.542969 274.542969 252.496094 273.199219 C 250.679688 270.890625 251.074219 267.535156 253.382812 265.71875 L 352.9375 187.433594 L 253.382812 109.144531 C 251.074219 107.328125 250.679688 103.976562 252.496094 101.648438 C 253.542969 100.320312 255.125 99.625 256.691406 99.625 " fill-opacity="1" fill-rule="nonzero"/><path fill="#6db5e7" d="M 135.382812 328.960938 C 134.226562 328.960938 133.101562 328.742188 132.027344 328.328125 C 129.71875 327.429688 127.882812 325.6875 126.886719 323.425781 C 125.871094 321.148438 125.824219 318.636719 126.710938 316.324219 L 229.144531 51.832031 C 230.519531 48.289062 234 45.902344 237.800781 45.902344 C 238.953125 45.902344 240.09375 46.121094 241.167969 46.535156 C 245.929688 48.382812 248.320312 53.777344 246.46875 58.554688 L 144.050781 323.03125 C 142.675781 326.574219 139.179688 328.960938 135.382812 328.960938 " fill-opacity="1" fill-rule="nonzero"/><g clip-path="url(#id1)"><path fill="#224c8d" d="M 237.800781 41.949219 C 232.371094 41.949219 227.402344 45.363281 225.457031 50.410156 L 123.023438 314.886719 C 121.757812 318.191406 121.835938 321.78125 123.261719 325.023438 C 124.703125 328.25 127.296875 330.75 130.601562 332.015625 C 132.136719 332.617188 133.734375 332.914062 135.382812 332.914062 C 140.808594 332.914062 145.777344 329.515625 147.738281 324.453125 L 250.15625 59.976562 C 252.796875 53.160156 249.398438 45.472656 242.578125 42.847656 C 241.058594 42.25 239.445312 41.949219 237.800781 41.949219 Z M 237.800781 49.855469 C 238.449219 49.855469 239.097656 49.980469 239.730469 50.21875 C 242.480469 51.277344 243.84375 54.363281 242.78125 57.113281 L 140.351562 321.59375 C 139.542969 323.710938 137.519531 325.007812 135.382812 325.007812 C 134.734375 325.007812 134.085938 324.898438 133.453125 324.644531 C 130.699219 323.585938 129.335938 320.484375 130.414062 317.75 L 232.832031 53.269531 C 233.652344 51.152344 235.664062 49.855469 237.800781 49.855469 " fill-opacity="1" fill-rule="nonzero"/></g></svg>